<?xml version="1.0" encoding="UTF-8"?>
<svg width="85px" height="24px" viewBox="0 0 85 24" version="1.1" xmlns="http://www.w3.org/2000/svg" xmlns:xlink="http://www.w3.org/1999/xlink">
    <title>Disney</title>
    <g id="页面-1" stroke="none" stroke-width="1" fill="none" fill-rule="evenodd">
        <g id="Disney" transform="translate(0.8281, 0.0664)" fill="#ffffff" fill-rule="nonzero">
            <path d="M0,0.75390625 L7.88671875,0.75390625 C9.44140625,0.75390625 10.6972656,0.96484375 11.6542969,1.38671875 C12.6113281,1.80859375 13.4023438,2.4140625 14.0273438,3.203125 C14.6523438,3.9921875 15.1054688,4.91015625 15.3867188,5.95703125 C15.6679688,7.00390625 15.8085938,8.11328125 15.8085938,9.28515625 C15.8085938,11.1210938 15.5996094,12.5449219 15.1816406,13.5566406 C14.7636719,14.5683594 14.1835938,15.4160156 13.4414062,16.0996094 C12.6992188,16.7832031 11.9023438,17.2382812 11.0507812,17.4648438 C9.88671875,17.7773438 8.83203125,17.9335938 7.88671875,17.9335938 L0,17.9335938 L0,0.75390625 Z M5.30859375,4.64453125 L5.30859375,14.03125 L6.609375,14.03125 C7.71875,14.03125 8.5078125,13.9082031 8.9765625,13.6621094 C9.4453125,13.4160156 9.8125,12.9863281 10.078125,12.3730469 C10.34375,11.7597656 10.4765625,10.765625 10.4765625,9.390625 C10.4765625,7.5703125 10.1796875,6.32421875 9.5859375,5.65234375 C8.9921875,4.98046875 8.0078125,4.64453125 6.6328125,4.64453125 L5.30859375,4.64453125 Z" id="形状"></path>
            <path d="M20.1570313,0 C21.4272862,-2.33342044e-16 22.4570313,1.02974508 22.4570313,2.3 C22.4570313,3.57025492 21.4272862,4.6 20.1570313,4.6 C18.8867763,4.6 17.8570313,3.57025492 17.8570313,2.3 C17.8570313,1.02974508 18.8867763,1.55561363e-16 20.1570313,0 Z M17.8570313,5.48828125 L22.6265625,5.48828125 L22.6265625,17.9335938 L17.8570313,17.9335938 L17.8570313,5.48828125 Z" id="形状"></path>
            <path d="M24.2296875,14.4882812 L28.9640625,14.0429688 C29.159375,14.6054688 29.4328125,15.0078125 29.784375,15.25 C30.1359375,15.4921875 30.6046875,15.6132812 31.190625,15.6132812 C31.83125,15.6132812 32.3273438,15.4765625 32.6789063,15.203125 C32.9523438,15 33.0890625,14.7460938 33.0890625,14.4414062 C33.0890625,14.0976562 32.909375,13.8320312 32.55,13.6445312 C32.2921875,13.5117188 31.6085938,13.3476562 30.4992188,13.1523438 C28.8429688,12.8632812 27.6925781,12.5957031 27.0480469,12.3496094 C26.4035156,12.1035156 25.8605469,11.6875 25.4191406,11.1015625 C24.9777344,10.515625 24.7570313,9.84765625 24.7570313,9.09765625 C24.7570313,8.27734375 24.9953125,7.5703125 25.471875,6.9765625 C25.9484375,6.3828125 26.6046875,5.93945312 27.440625,5.64648438 C28.2765625,5.35351562 29.3976563,5.20703125 30.8039063,5.20703125 C32.2882813,5.20703125 33.3839844,5.3203125 34.0910156,5.546875 C34.7980469,5.7734375 35.3878906,6.125 35.8605469,6.6015625 C36.3332031,7.078125 36.7257813,7.72265625 37.0382813,8.53515625 L32.5148438,8.98046875 C32.3976563,8.58203125 32.2023438,8.2890625 31.9289063,8.1015625 C31.5539063,7.8515625 31.1007813,7.7265625 30.5695313,7.7265625 C30.0304688,7.7265625 29.6378906,7.82226562 29.3917969,8.01367188 C29.1457031,8.20507812 29.0226563,8.4375 29.0226563,8.7109375 C29.0226563,9.015625 29.1789063,9.24609375 29.4914063,9.40234375 C29.8039063,9.55859375 30.4835938,9.69921875 31.5304688,9.82421875 C33.1164063,10.0039062 34.2960938,10.2539062 35.0695313,10.5742188 C35.8429688,10.8945312 36.4347656,11.3515625 36.8449219,11.9453125 C37.2550781,12.5390625 37.4601563,13.1914062 37.4601563,13.9023438 C37.4601563,14.6210938 37.2433594,15.3203125 36.8097656,16 C36.3761719,16.6796875 35.6925781,17.2207031 34.7589844,17.6230469 C33.8253906,18.0253906 32.5539063,18.2265625 30.9445313,18.2265625 C28.6710938,18.2265625 27.0519531,17.9023438 26.0871094,17.2539062 C25.1222656,16.6054688 24.503125,15.6835938 24.2296875,14.4882812 Z" id="路径"></path>
            <path d="M39.1335937,5.48828125 L43.575,5.48828125 L43.575,7.515625 C44.2390625,6.6875 44.9109375,6.09570312 45.590625,5.74023438 C46.2703125,5.38476562 47.0984375,5.20703125 48.075,5.20703125 C49.3953125,5.20703125 50.4285156,5.59960938 51.1746094,6.38476562 C51.9207031,7.16992188 52.29375,8.3828125 52.29375,10.0234375 L52.29375,17.9335938 L47.5007812,17.9335938 L47.5007812,11.0898438 C47.5007812,10.3085938 47.35625,9.75585938 47.0671875,9.43164062 C46.778125,9.10742188 46.371875,8.9453125 45.8484375,8.9453125 C45.2703125,8.9453125 44.8015625,9.1640625 44.4421875,9.6015625 C44.0828125,10.0390625 43.903125,10.8242188 43.903125,11.9570312 L43.903125,17.9335938 L39.1335937,17.9335938 L39.1335937,5.48828125 Z" id="路径"></path>
            <path d="M68.3578125,12.8945312 L58.7953125,12.8945312 C58.88125,13.6601562 59.0882812,14.2304688 59.4164062,14.6054688 C59.8773437,15.1445312 60.4789062,15.4140625 61.2210937,15.4140625 C61.6898437,15.4140625 62.1351562,15.296875 62.5570312,15.0625 C62.8148437,14.9140625 63.0921875,14.6523438 63.3890625,14.2773438 L68.0882813,14.7109375 C67.3695313,15.9609375 66.5023438,16.8574219 65.4867188,17.4003906 C64.4710938,17.9433594 63.0140625,18.2148438 61.115625,18.2148438 C59.4671875,18.2148438 58.1703125,17.9824219 57.225,17.5175781 C56.2796875,17.0527344 55.4964844,16.3144531 54.8753906,15.3027344 C54.2542969,14.2910156 53.94375,13.1015625 53.94375,11.734375 C53.94375,9.7890625 54.5667969,8.21484375 55.8128906,7.01171875 C57.0589844,5.80859375 58.7796875,5.20703125 60.975,5.20703125 C62.75625,5.20703125 64.1625,5.4765625 65.19375,6.015625 C66.225,6.5546875 67.0101563,7.3359375 67.5492188,8.359375 C68.0882813,9.3828125 68.3578125,10.7148438 68.3578125,12.3554688 L68.3578125,12.8945312 Z M63.50625,10.609375 C63.4125,9.6875 63.1644531,9.02734375 62.7621094,8.62890625 C62.3597656,8.23046875 61.8304687,8.03125 61.1742187,8.03125 C60.4164062,8.03125 59.8109375,8.33203125 59.3578125,8.93359375 C59.06875,9.30859375 58.8851562,9.8671875 58.8070312,10.609375 L63.50625,10.609375 Z" id="形状"></path>
            <path d="M68.5664062,5.48828125 L73.6054688,5.48828125 L76.171875,13.7734375 L78.5507812,5.48828125 L83.25,5.48828125 L78.3164062,18.7890625 C77.7539062,20.3046875 77.1796875,21.328125 76.59375,21.859375 C75.765625,22.609375 74.5039062,22.984375 72.8085938,22.984375 C72.1210938,22.984375 71.0585938,22.890625 69.6210938,22.703125 L69.2460938,19.375 C69.9335938,19.59375 70.6992188,19.703125 71.5429688,19.703125 C72.1054688,19.703125 72.5605469,19.5742188 72.9082031,19.3164062 C73.2558594,19.0585938 73.5507812,18.5976562 73.7929688,17.9335938 L68.5664062,5.48828125 Z" id="路径"></path>
        </g>
    </g>
</svg>